<mxfile host="app.diagrams.net" modified="2024-04-19T22:35:31.970Z" agent="Mozilla/5.0 (Windows NT 10.0; Win64; x64) AppleWebKit/537.36 (KHTML, like Gecko) Chrome/123.0.0.0 Safari/537.36" etag="pv81rNJ7Zv1xyNjwoT5t" version="24.2.5" type="github">
  <diagram id="C5RBs43oDa-KdzZeNtuy" name="Page-1">
    <mxGraphModel dx="1313" dy="696" grid="1" gridSize="10" guides="1" tooltips="1" connect="1" arrows="1" fold="1" page="1" pageScale="1" pageWidth="3300" pageHeight="4681" math="0" shadow="0">
      <root>
        <mxCell id="WIyWlLk6GJQsqaUBKTNV-0" />
        <mxCell id="WIyWlLk6GJQsqaUBKTNV-1" parent="WIyWlLk6GJQsqaUBKTNV-0" />
        <mxCell id="Lp6nR-XO7YD9SZ0UYjuW-0" value="ACADEMIA" style="whiteSpace=wrap;html=1;align=center;" parent="WIyWlLk6GJQsqaUBKTNV-1" vertex="1">
          <mxGeometry x="1110" y="460" width="100" height="40" as="geometry" />
        </mxCell>
        <mxCell id="Lp6nR-XO7YD9SZ0UYjuW-2" value="AcadPess" style="shape=rhombus;perimeter=rhombusPerimeter;whiteSpace=wrap;html=1;align=center;" parent="WIyWlLk6GJQsqaUBKTNV-1" vertex="1">
          <mxGeometry x="1100" y="550" width="120" height="60" as="geometry" />
        </mxCell>
        <mxCell id="Lp6nR-XO7YD9SZ0UYjuW-3" value="" style="endArrow=none;html=1;rounded=0;entryX=0.5;entryY=1;entryDx=0;entryDy=0;exitX=0.5;exitY=0;exitDx=0;exitDy=0;" parent="WIyWlLk6GJQsqaUBKTNV-1" source="Lp6nR-XO7YD9SZ0UYjuW-2" target="Lp6nR-XO7YD9SZ0UYjuW-0" edge="1">
          <mxGeometry width="50" height="50" relative="1" as="geometry">
            <mxPoint x="1320" y="590" as="sourcePoint" />
            <mxPoint x="1370" y="540" as="targetPoint" />
          </mxGeometry>
        </mxCell>
        <mxCell id="Lp6nR-XO7YD9SZ0UYjuW-4" value="" style="endArrow=none;html=1;rounded=0;entryX=0.5;entryY=1;entryDx=0;entryDy=0;strokeWidth=1;exitX=0.5;exitY=0;exitDx=0;exitDy=0;" parent="WIyWlLk6GJQsqaUBKTNV-1" source="Pqf1q-5HvZE4MUK6Lj2k-0" target="Lp6nR-XO7YD9SZ0UYjuW-2" edge="1">
          <mxGeometry width="50" height="50" relative="1" as="geometry">
            <mxPoint x="1140" y="630" as="sourcePoint" />
            <mxPoint x="1370" y="540" as="targetPoint" />
          </mxGeometry>
        </mxCell>
        <mxCell id="Lp6nR-XO7YD9SZ0UYjuW-5" value="REDE" style="whiteSpace=wrap;html=1;align=center;" parent="WIyWlLk6GJQsqaUBKTNV-1" vertex="1">
          <mxGeometry x="1400" y="380" width="100" height="40" as="geometry" />
        </mxCell>
        <mxCell id="Lp6nR-XO7YD9SZ0UYjuW-6" value="RedeAcad" style="shape=rhombus;perimeter=rhombusPerimeter;whiteSpace=wrap;html=1;align=center;" parent="WIyWlLk6GJQsqaUBKTNV-1" vertex="1">
          <mxGeometry x="1100" y="370" width="120" height="60" as="geometry" />
        </mxCell>
        <mxCell id="Lp6nR-XO7YD9SZ0UYjuW-7" value="" style="endArrow=none;html=1;rounded=0;exitX=0.5;exitY=0;exitDx=0;exitDy=0;entryX=0.5;entryY=1;entryDx=0;entryDy=0;shadow=0;strokeWidth=3;" parent="WIyWlLk6GJQsqaUBKTNV-1" source="Lp6nR-XO7YD9SZ0UYjuW-0" target="Lp6nR-XO7YD9SZ0UYjuW-6" edge="1">
          <mxGeometry relative="1" as="geometry">
            <mxPoint x="1270" y="570" as="sourcePoint" />
            <mxPoint x="1430" y="570" as="targetPoint" />
          </mxGeometry>
        </mxCell>
        <mxCell id="Lp6nR-XO7YD9SZ0UYjuW-8" value="" style="endArrow=none;html=1;rounded=0;entryX=0;entryY=0.5;entryDx=0;entryDy=0;exitX=1;exitY=0.5;exitDx=0;exitDy=0;" parent="WIyWlLk6GJQsqaUBKTNV-1" source="Lp6nR-XO7YD9SZ0UYjuW-6" target="Lp6nR-XO7YD9SZ0UYjuW-5" edge="1">
          <mxGeometry relative="1" as="geometry">
            <mxPoint x="1270" y="570" as="sourcePoint" />
            <mxPoint x="1430" y="570" as="targetPoint" />
          </mxGeometry>
        </mxCell>
        <mxCell id="Lp6nR-XO7YD9SZ0UYjuW-9" value="(1,n)" style="text;html=1;align=center;verticalAlign=middle;resizable=0;points=[];autosize=1;strokeColor=none;fillColor=none;" parent="WIyWlLk6GJQsqaUBKTNV-1" vertex="1">
          <mxGeometry x="1160" y="430" width="50" height="30" as="geometry" />
        </mxCell>
        <mxCell id="Lp6nR-XO7YD9SZ0UYjuW-10" value="(1,1)" style="text;html=1;align=center;verticalAlign=middle;resizable=0;points=[];autosize=1;strokeColor=none;fillColor=none;" parent="WIyWlLk6GJQsqaUBKTNV-1" vertex="1">
          <mxGeometry x="1349" y="370" width="50" height="30" as="geometry" />
        </mxCell>
        <mxCell id="Lp6nR-XO7YD9SZ0UYjuW-17" value="(1,n)" style="text;html=1;align=center;verticalAlign=middle;resizable=0;points=[];autosize=1;strokeColor=none;fillColor=none;" parent="WIyWlLk6GJQsqaUBKTNV-1" vertex="1">
          <mxGeometry x="1160" y="500" width="50" height="30" as="geometry" />
        </mxCell>
        <mxCell id="Pqf1q-5HvZE4MUK6Lj2k-8" value="" style="edgeStyle=orthogonalEdgeStyle;rounded=0;orthogonalLoop=1;jettySize=auto;html=1;" edge="1" parent="WIyWlLk6GJQsqaUBKTNV-1" source="Lp6nR-XO7YD9SZ0UYjuW-18" target="Pqf1q-5HvZE4MUK6Lj2k-0">
          <mxGeometry relative="1" as="geometry" />
        </mxCell>
        <mxCell id="Lp6nR-XO7YD9SZ0UYjuW-18" value="(0,n)" style="text;html=1;align=center;verticalAlign=middle;resizable=0;points=[];autosize=1;strokeColor=none;fillColor=none;" parent="WIyWlLk6GJQsqaUBKTNV-1" vertex="1">
          <mxGeometry x="1160" y="610" width="50" height="30" as="geometry" />
        </mxCell>
        <mxCell id="Lp6nR-XO7YD9SZ0UYjuW-19" value="" style="endArrow=oval;html=1;rounded=0;exitX=1;exitY=0.25;exitDx=0;exitDy=0;endFill=1;" parent="WIyWlLk6GJQsqaUBKTNV-1" source="Lp6nR-XO7YD9SZ0UYjuW-5" edge="1">
          <mxGeometry relative="1" as="geometry">
            <mxPoint x="1536" y="400" as="sourcePoint" />
            <mxPoint x="1596" y="390" as="targetPoint" />
          </mxGeometry>
        </mxCell>
        <mxCell id="Lp6nR-XO7YD9SZ0UYjuW-20" value="id_rede" style="text;html=1;align=center;verticalAlign=middle;resizable=0;points=[];autosize=1;strokeColor=none;fillColor=none;" parent="WIyWlLk6GJQsqaUBKTNV-1" vertex="1">
          <mxGeometry x="1611" y="370" width="60" height="30" as="geometry" />
        </mxCell>
        <mxCell id="Lp6nR-XO7YD9SZ0UYjuW-21" value="" style="endArrow=oval;html=1;rounded=0;exitX=1;exitY=0.5;exitDx=0;exitDy=0;endFill=0;" parent="WIyWlLk6GJQsqaUBKTNV-1" source="Lp6nR-XO7YD9SZ0UYjuW-5" edge="1">
          <mxGeometry relative="1" as="geometry">
            <mxPoint x="1536" y="400" as="sourcePoint" />
            <mxPoint x="1596" y="410" as="targetPoint" />
            <Array as="points">
              <mxPoint x="1596" y="400" />
            </Array>
          </mxGeometry>
        </mxCell>
        <mxCell id="Lp6nR-XO7YD9SZ0UYjuW-23" value="Nome" style="text;html=1;align=center;verticalAlign=middle;resizable=0;points=[];autosize=1;strokeColor=none;fillColor=none;" parent="WIyWlLk6GJQsqaUBKTNV-1" vertex="1">
          <mxGeometry x="1566" y="410" width="60" height="30" as="geometry" />
        </mxCell>
        <mxCell id="Lp6nR-XO7YD9SZ0UYjuW-29" value="ENDEREÇO" style="whiteSpace=wrap;html=1;align=center;" parent="WIyWlLk6GJQsqaUBKTNV-1" vertex="1">
          <mxGeometry x="1420" y="560" width="100" height="40" as="geometry" />
        </mxCell>
        <mxCell id="Lp6nR-XO7YD9SZ0UYjuW-32" value="AcadEnd" style="shape=rhombus;perimeter=rhombusPerimeter;whiteSpace=wrap;html=1;align=center;" parent="WIyWlLk6GJQsqaUBKTNV-1" vertex="1">
          <mxGeometry x="1410" y="450" width="120" height="60" as="geometry" />
        </mxCell>
        <mxCell id="Lp6nR-XO7YD9SZ0UYjuW-33" value="PesEnd" style="shape=rhombus;perimeter=rhombusPerimeter;whiteSpace=wrap;html=1;align=center;" parent="WIyWlLk6GJQsqaUBKTNV-1" vertex="1">
          <mxGeometry x="1410" y="630" width="120" height="60" as="geometry" />
        </mxCell>
        <mxCell id="Pqf1q-5HvZE4MUK6Lj2k-50" value="" style="edgeStyle=orthogonalEdgeStyle;rounded=0;orthogonalLoop=1;jettySize=auto;html=1;endArrow=none;endFill=0;entryX=1;entryY=0.5;entryDx=0;entryDy=0;" edge="1" parent="WIyWlLk6GJQsqaUBKTNV-1" source="Pqf1q-5HvZE4MUK6Lj2k-0" target="Pqf1q-5HvZE4MUK6Lj2k-82">
          <mxGeometry relative="1" as="geometry">
            <mxPoint x="1000" y="660" as="targetPoint" />
          </mxGeometry>
        </mxCell>
        <mxCell id="Pqf1q-5HvZE4MUK6Lj2k-0" value="PESSOA" style="whiteSpace=wrap;html=1;align=center;" vertex="1" parent="WIyWlLk6GJQsqaUBKTNV-1">
          <mxGeometry x="1110" y="640" width="100" height="40" as="geometry" />
        </mxCell>
        <mxCell id="Pqf1q-5HvZE4MUK6Lj2k-1" value="FUNCIONÁRIO" style="whiteSpace=wrap;html=1;align=center;" vertex="1" parent="WIyWlLk6GJQsqaUBKTNV-1">
          <mxGeometry x="1040" y="760" width="100" height="40" as="geometry" />
        </mxCell>
        <mxCell id="Pqf1q-5HvZE4MUK6Lj2k-2" value="SALÁRIO" style="whiteSpace=wrap;html=1;align=center;" vertex="1" parent="WIyWlLk6GJQsqaUBKTNV-1">
          <mxGeometry x="1040" y="920" width="100" height="40" as="geometry" />
        </mxCell>
        <mxCell id="Pqf1q-5HvZE4MUK6Lj2k-3" value="PLANO" style="whiteSpace=wrap;html=1;align=center;" vertex="1" parent="WIyWlLk6GJQsqaUBKTNV-1">
          <mxGeometry x="1245" y="760" width="100" height="40" as="geometry" />
        </mxCell>
        <mxCell id="Pqf1q-5HvZE4MUK6Lj2k-7" value="" style="triangle;whiteSpace=wrap;html=1;direction=north;" vertex="1" parent="WIyWlLk6GJQsqaUBKTNV-1">
          <mxGeometry x="1050" y="710" width="80" height="30" as="geometry" />
        </mxCell>
        <mxCell id="Pqf1q-5HvZE4MUK6Lj2k-9" value="" style="endArrow=none;html=1;rounded=0;exitX=1;exitY=0.5;exitDx=0;exitDy=0;entryX=0.25;entryY=1;entryDx=0;entryDy=0;" edge="1" parent="WIyWlLk6GJQsqaUBKTNV-1" source="Pqf1q-5HvZE4MUK6Lj2k-7" target="Pqf1q-5HvZE4MUK6Lj2k-0">
          <mxGeometry width="50" height="50" relative="1" as="geometry">
            <mxPoint x="1120" y="680" as="sourcePoint" />
            <mxPoint x="1170" y="630" as="targetPoint" />
            <Array as="points">
              <mxPoint x="1135" y="710" />
            </Array>
          </mxGeometry>
        </mxCell>
        <mxCell id="Pqf1q-5HvZE4MUK6Lj2k-10" value="" style="endArrow=none;html=1;rounded=0;entryX=0;entryY=0.5;entryDx=0;entryDy=0;exitX=0.5;exitY=0;exitDx=0;exitDy=0;" edge="1" parent="WIyWlLk6GJQsqaUBKTNV-1" source="Pqf1q-5HvZE4MUK6Lj2k-1" target="Pqf1q-5HvZE4MUK6Lj2k-7">
          <mxGeometry width="50" height="50" relative="1" as="geometry">
            <mxPoint x="1120" y="790" as="sourcePoint" />
            <mxPoint x="1170" y="740" as="targetPoint" />
          </mxGeometry>
        </mxCell>
        <mxCell id="Pqf1q-5HvZE4MUK6Lj2k-12" value="ASSINATURA" style="shape=rhombus;perimeter=rhombusPerimeter;whiteSpace=wrap;html=1;align=center;" vertex="1" parent="WIyWlLk6GJQsqaUBKTNV-1">
          <mxGeometry x="1235" y="680" width="120" height="60" as="geometry" />
        </mxCell>
        <mxCell id="Pqf1q-5HvZE4MUK6Lj2k-13" value="" style="endArrow=none;html=1;rounded=0;entryX=1;entryY=0.75;entryDx=0;entryDy=0;exitX=0.5;exitY=0;exitDx=0;exitDy=0;" edge="1" parent="WIyWlLk6GJQsqaUBKTNV-1" source="Pqf1q-5HvZE4MUK6Lj2k-12" target="Pqf1q-5HvZE4MUK6Lj2k-0">
          <mxGeometry width="50" height="50" relative="1" as="geometry">
            <mxPoint x="1300" y="790" as="sourcePoint" />
            <mxPoint x="1350" y="740" as="targetPoint" />
            <Array as="points">
              <mxPoint x="1295" y="670" />
            </Array>
          </mxGeometry>
        </mxCell>
        <mxCell id="Pqf1q-5HvZE4MUK6Lj2k-14" value="" style="endArrow=none;html=1;rounded=0;entryX=0.5;entryY=1;entryDx=0;entryDy=0;exitX=0.5;exitY=0;exitDx=0;exitDy=0;" edge="1" parent="WIyWlLk6GJQsqaUBKTNV-1" source="Pqf1q-5HvZE4MUK6Lj2k-3" target="Pqf1q-5HvZE4MUK6Lj2k-12">
          <mxGeometry width="50" height="50" relative="1" as="geometry">
            <mxPoint x="1380" y="780" as="sourcePoint" />
            <mxPoint x="1430" y="730" as="targetPoint" />
          </mxGeometry>
        </mxCell>
        <mxCell id="Pqf1q-5HvZE4MUK6Lj2k-15" value="" style="endArrow=none;html=1;rounded=0;entryX=0;entryY=0.5;entryDx=0;entryDy=0;exitX=1;exitY=0.5;exitDx=0;exitDy=0;" edge="1" parent="WIyWlLk6GJQsqaUBKTNV-1" source="Lp6nR-XO7YD9SZ0UYjuW-0" target="Lp6nR-XO7YD9SZ0UYjuW-32">
          <mxGeometry width="50" height="50" relative="1" as="geometry">
            <mxPoint x="1300" y="630" as="sourcePoint" />
            <mxPoint x="1350" y="580" as="targetPoint" />
          </mxGeometry>
        </mxCell>
        <mxCell id="Pqf1q-5HvZE4MUK6Lj2k-16" value="" style="endArrow=none;html=1;rounded=0;entryX=0.5;entryY=1;entryDx=0;entryDy=0;exitX=0.5;exitY=0;exitDx=0;exitDy=0;" edge="1" parent="WIyWlLk6GJQsqaUBKTNV-1" source="Lp6nR-XO7YD9SZ0UYjuW-29" target="Lp6nR-XO7YD9SZ0UYjuW-32">
          <mxGeometry width="50" height="50" relative="1" as="geometry">
            <mxPoint x="1300" y="630" as="sourcePoint" />
            <mxPoint x="1350" y="580" as="targetPoint" />
          </mxGeometry>
        </mxCell>
        <mxCell id="Pqf1q-5HvZE4MUK6Lj2k-17" value="" style="endArrow=none;html=1;rounded=0;exitX=1;exitY=0.5;exitDx=0;exitDy=0;entryX=0;entryY=0.5;entryDx=0;entryDy=0;" edge="1" parent="WIyWlLk6GJQsqaUBKTNV-1" source="Pqf1q-5HvZE4MUK6Lj2k-0" target="Lp6nR-XO7YD9SZ0UYjuW-33">
          <mxGeometry width="50" height="50" relative="1" as="geometry">
            <mxPoint x="1300" y="630" as="sourcePoint" />
            <mxPoint x="1350" y="580" as="targetPoint" />
          </mxGeometry>
        </mxCell>
        <mxCell id="Pqf1q-5HvZE4MUK6Lj2k-18" value="" style="endArrow=none;html=1;rounded=0;entryX=0.5;entryY=1;entryDx=0;entryDy=0;exitX=0.5;exitY=0;exitDx=0;exitDy=0;" edge="1" parent="WIyWlLk6GJQsqaUBKTNV-1" source="Lp6nR-XO7YD9SZ0UYjuW-33" target="Lp6nR-XO7YD9SZ0UYjuW-29">
          <mxGeometry width="50" height="50" relative="1" as="geometry">
            <mxPoint x="1300" y="630" as="sourcePoint" />
            <mxPoint x="1350" y="580" as="targetPoint" />
          </mxGeometry>
        </mxCell>
        <mxCell id="Pqf1q-5HvZE4MUK6Lj2k-19" value="Sede" style="shape=rhombus;perimeter=rhombusPerimeter;whiteSpace=wrap;html=1;align=center;" vertex="1" parent="WIyWlLk6GJQsqaUBKTNV-1">
          <mxGeometry x="1590" y="490" width="120" height="60" as="geometry" />
        </mxCell>
        <mxCell id="Pqf1q-5HvZE4MUK6Lj2k-20" value="" style="endArrow=none;html=1;rounded=0;entryX=0.5;entryY=1;entryDx=0;entryDy=0;exitX=0.5;exitY=0;exitDx=0;exitDy=0;" edge="1" parent="WIyWlLk6GJQsqaUBKTNV-1" source="Pqf1q-5HvZE4MUK6Lj2k-19" target="Lp6nR-XO7YD9SZ0UYjuW-5">
          <mxGeometry width="50" height="50" relative="1" as="geometry">
            <mxPoint x="1480" y="570" as="sourcePoint" />
            <mxPoint x="1480" y="520" as="targetPoint" />
            <Array as="points">
              <mxPoint x="1650" y="440" />
              <mxPoint x="1450" y="440" />
            </Array>
          </mxGeometry>
        </mxCell>
        <mxCell id="Pqf1q-5HvZE4MUK6Lj2k-21" value="" style="endArrow=none;html=1;rounded=0;entryX=0.5;entryY=1;entryDx=0;entryDy=0;exitX=1;exitY=0.5;exitDx=0;exitDy=0;" edge="1" parent="WIyWlLk6GJQsqaUBKTNV-1" source="Lp6nR-XO7YD9SZ0UYjuW-29" target="Pqf1q-5HvZE4MUK6Lj2k-19">
          <mxGeometry width="50" height="50" relative="1" as="geometry">
            <mxPoint x="1460" y="660" as="sourcePoint" />
            <mxPoint x="1510" y="610" as="targetPoint" />
            <Array as="points">
              <mxPoint x="1650" y="580" />
            </Array>
          </mxGeometry>
        </mxCell>
        <mxCell id="Pqf1q-5HvZE4MUK6Lj2k-22" value="(0,1)" style="text;html=1;align=center;verticalAlign=middle;resizable=0;points=[];autosize=1;strokeColor=none;fillColor=none;" vertex="1" parent="WIyWlLk6GJQsqaUBKTNV-1">
          <mxGeometry x="1235" y="730" width="50" height="30" as="geometry" />
        </mxCell>
        <mxCell id="Pqf1q-5HvZE4MUK6Lj2k-23" value="(1,n)" style="text;html=1;align=center;verticalAlign=middle;resizable=0;points=[];autosize=1;strokeColor=none;fillColor=none;" vertex="1" parent="WIyWlLk6GJQsqaUBKTNV-1">
          <mxGeometry x="1210" y="670" width="50" height="30" as="geometry" />
        </mxCell>
        <mxCell id="Pqf1q-5HvZE4MUK6Lj2k-24" value="FuncSal" style="shape=rhombus;perimeter=rhombusPerimeter;whiteSpace=wrap;html=1;align=center;" vertex="1" parent="WIyWlLk6GJQsqaUBKTNV-1">
          <mxGeometry x="1030" y="825" width="120" height="60" as="geometry" />
        </mxCell>
        <mxCell id="Pqf1q-5HvZE4MUK6Lj2k-25" value="" style="endArrow=none;html=1;rounded=0;entryX=0.5;entryY=1;entryDx=0;entryDy=0;exitX=0.5;exitY=0;exitDx=0;exitDy=0;" edge="1" parent="WIyWlLk6GJQsqaUBKTNV-1" source="Pqf1q-5HvZE4MUK6Lj2k-24" target="Pqf1q-5HvZE4MUK6Lj2k-1">
          <mxGeometry width="50" height="50" relative="1" as="geometry">
            <mxPoint x="1350" y="870" as="sourcePoint" />
            <mxPoint x="1400" y="820" as="targetPoint" />
          </mxGeometry>
        </mxCell>
        <mxCell id="Pqf1q-5HvZE4MUK6Lj2k-26" value="" style="endArrow=none;html=1;rounded=0;exitX=0.5;exitY=0;exitDx=0;exitDy=0;entryX=0.5;entryY=1;entryDx=0;entryDy=0;" edge="1" parent="WIyWlLk6GJQsqaUBKTNV-1" source="Pqf1q-5HvZE4MUK6Lj2k-2" target="Pqf1q-5HvZE4MUK6Lj2k-24">
          <mxGeometry width="50" height="50" relative="1" as="geometry">
            <mxPoint x="1350" y="870" as="sourcePoint" />
            <mxPoint x="1400" y="820" as="targetPoint" />
          </mxGeometry>
        </mxCell>
        <mxCell id="Pqf1q-5HvZE4MUK6Lj2k-27" value="CNPJ" style="text;html=1;align=center;verticalAlign=middle;resizable=0;points=[];autosize=1;strokeColor=none;fillColor=none;" vertex="1" parent="WIyWlLk6GJQsqaUBKTNV-1">
          <mxGeometry x="1425" y="330" width="50" height="30" as="geometry" />
        </mxCell>
        <mxCell id="Pqf1q-5HvZE4MUK6Lj2k-28" value="CNPJ" style="text;html=1;align=center;verticalAlign=middle;resizable=0;points=[];autosize=1;strokeColor=none;fillColor=none;" vertex="1" parent="WIyWlLk6GJQsqaUBKTNV-1">
          <mxGeometry x="1020" y="450" width="50" height="30" as="geometry" />
        </mxCell>
        <mxCell id="Pqf1q-5HvZE4MUK6Lj2k-29" value="Rua" style="text;html=1;align=center;verticalAlign=middle;whiteSpace=wrap;rounded=0;" vertex="1" parent="WIyWlLk6GJQsqaUBKTNV-1">
          <mxGeometry x="1570" y="590" width="60" height="30" as="geometry" />
        </mxCell>
        <mxCell id="Pqf1q-5HvZE4MUK6Lj2k-30" value="Bairro" style="text;html=1;align=center;verticalAlign=middle;whiteSpace=wrap;rounded=0;" vertex="1" parent="WIyWlLk6GJQsqaUBKTNV-1">
          <mxGeometry x="1566" y="610" width="60" height="30" as="geometry" />
        </mxCell>
        <mxCell id="Pqf1q-5HvZE4MUK6Lj2k-31" value="Número" style="text;html=1;align=center;verticalAlign=middle;whiteSpace=wrap;rounded=0;" vertex="1" parent="WIyWlLk6GJQsqaUBKTNV-1">
          <mxGeometry x="1570" y="630" width="60" height="30" as="geometry" />
        </mxCell>
        <mxCell id="Pqf1q-5HvZE4MUK6Lj2k-32" value="Cidade" style="text;html=1;align=center;verticalAlign=middle;whiteSpace=wrap;rounded=0;" vertex="1" parent="WIyWlLk6GJQsqaUBKTNV-1">
          <mxGeometry x="1570" y="660" width="60" height="30" as="geometry" />
        </mxCell>
        <mxCell id="Pqf1q-5HvZE4MUK6Lj2k-33" value="Estado" style="text;html=1;align=center;verticalAlign=middle;resizable=0;points=[];autosize=1;strokeColor=none;fillColor=none;" vertex="1" parent="WIyWlLk6GJQsqaUBKTNV-1">
          <mxGeometry x="1566" y="690" width="60" height="30" as="geometry" />
        </mxCell>
        <mxCell id="Pqf1q-5HvZE4MUK6Lj2k-34" value="País" style="text;html=1;align=center;verticalAlign=middle;resizable=0;points=[];autosize=1;strokeColor=none;fillColor=none;" vertex="1" parent="WIyWlLk6GJQsqaUBKTNV-1">
          <mxGeometry x="1571" y="720" width="50" height="30" as="geometry" />
        </mxCell>
        <mxCell id="Pqf1q-5HvZE4MUK6Lj2k-35" value="Cep" style="text;html=1;align=center;verticalAlign=middle;whiteSpace=wrap;rounded=0;" vertex="1" parent="WIyWlLk6GJQsqaUBKTNV-1">
          <mxGeometry x="1640" y="610" width="60" height="30" as="geometry" />
        </mxCell>
        <mxCell id="Pqf1q-5HvZE4MUK6Lj2k-36" value="Nome" style="text;html=1;align=center;verticalAlign=middle;whiteSpace=wrap;rounded=0;" vertex="1" parent="WIyWlLk6GJQsqaUBKTNV-1">
          <mxGeometry x="1020" y="480" width="60" height="30" as="geometry" />
        </mxCell>
        <mxCell id="Pqf1q-5HvZE4MUK6Lj2k-37" value="APARELHO" style="whiteSpace=wrap;html=1;align=center;" vertex="1" parent="WIyWlLk6GJQsqaUBKTNV-1">
          <mxGeometry x="680" y="570" width="100" height="40" as="geometry" />
        </mxCell>
        <mxCell id="Pqf1q-5HvZE4MUK6Lj2k-38" value="AULA" style="whiteSpace=wrap;html=1;align=center;" vertex="1" parent="WIyWlLk6GJQsqaUBKTNV-1">
          <mxGeometry x="1450" y="1040" width="100" height="40" as="geometry" />
        </mxCell>
        <mxCell id="Pqf1q-5HvZE4MUK6Lj2k-74" value="" style="edgeStyle=orthogonalEdgeStyle;rounded=0;orthogonalLoop=1;jettySize=auto;html=1;endArrow=none;endFill=0;" edge="1" parent="WIyWlLk6GJQsqaUBKTNV-1" source="Pqf1q-5HvZE4MUK6Lj2k-39" target="Pqf1q-5HvZE4MUK6Lj2k-73">
          <mxGeometry relative="1" as="geometry" />
        </mxCell>
        <mxCell id="Pqf1q-5HvZE4MUK6Lj2k-39" value="Acesso" style="shape=rhombus;perimeter=rhombusPerimeter;whiteSpace=wrap;html=1;align=center;" vertex="1" parent="WIyWlLk6GJQsqaUBKTNV-1">
          <mxGeometry x="1440" y="800" width="120" height="60" as="geometry" />
        </mxCell>
        <mxCell id="Pqf1q-5HvZE4MUK6Lj2k-40" value="" style="endArrow=none;html=1;rounded=0;exitX=1;exitY=0.5;exitDx=0;exitDy=0;entryX=0.5;entryY=0;entryDx=0;entryDy=0;" edge="1" parent="WIyWlLk6GJQsqaUBKTNV-1" source="Pqf1q-5HvZE4MUK6Lj2k-3" target="Pqf1q-5HvZE4MUK6Lj2k-39">
          <mxGeometry width="50" height="50" relative="1" as="geometry">
            <mxPoint x="1180" y="710" as="sourcePoint" />
            <mxPoint x="1230" y="660" as="targetPoint" />
            <Array as="points">
              <mxPoint x="1500" y="780" />
            </Array>
          </mxGeometry>
        </mxCell>
        <mxCell id="Pqf1q-5HvZE4MUK6Lj2k-44" value="Contém" style="shape=rhombus;perimeter=rhombusPerimeter;whiteSpace=wrap;html=1;align=center;" vertex="1" parent="WIyWlLk6GJQsqaUBKTNV-1">
          <mxGeometry x="670" y="480" width="120" height="60" as="geometry" />
        </mxCell>
        <mxCell id="Pqf1q-5HvZE4MUK6Lj2k-45" value="" style="endArrow=none;html=1;rounded=0;exitX=0.5;exitY=0;exitDx=0;exitDy=0;entryX=0;entryY=0.5;entryDx=0;entryDy=0;" edge="1" parent="WIyWlLk6GJQsqaUBKTNV-1" source="Pqf1q-5HvZE4MUK6Lj2k-44" target="Lp6nR-XO7YD9SZ0UYjuW-0">
          <mxGeometry width="50" height="50" relative="1" as="geometry">
            <mxPoint x="1200" y="500" as="sourcePoint" />
            <mxPoint x="1250" y="450" as="targetPoint" />
          </mxGeometry>
        </mxCell>
        <mxCell id="Pqf1q-5HvZE4MUK6Lj2k-46" value="" style="endArrow=none;html=1;rounded=0;entryX=0.5;entryY=1;entryDx=0;entryDy=0;exitX=0.5;exitY=0;exitDx=0;exitDy=0;" edge="1" parent="WIyWlLk6GJQsqaUBKTNV-1" source="Pqf1q-5HvZE4MUK6Lj2k-37" target="Pqf1q-5HvZE4MUK6Lj2k-44">
          <mxGeometry width="50" height="50" relative="1" as="geometry">
            <mxPoint x="1020" y="490" as="sourcePoint" />
            <mxPoint x="1070" y="440" as="targetPoint" />
          </mxGeometry>
        </mxCell>
        <mxCell id="Pqf1q-5HvZE4MUK6Lj2k-54" value="" style="endArrow=none;html=1;rounded=0;entryX=0;entryY=0.5;entryDx=0;entryDy=0;exitX=0.5;exitY=1;exitDx=0;exitDy=0;" edge="1" parent="WIyWlLk6GJQsqaUBKTNV-1" source="Pqf1q-5HvZE4MUK6Lj2k-37" target="Pqf1q-5HvZE4MUK6Lj2k-82">
          <mxGeometry width="50" height="50" relative="1" as="geometry">
            <mxPoint x="740" y="580" as="sourcePoint" />
            <mxPoint x="860" y="660" as="targetPoint" />
            <Array as="points">
              <mxPoint x="730" y="660" />
            </Array>
          </mxGeometry>
        </mxCell>
        <mxCell id="Pqf1q-5HvZE4MUK6Lj2k-65" value="" style="edgeStyle=orthogonalEdgeStyle;rounded=0;orthogonalLoop=1;jettySize=auto;html=1;entryX=0;entryY=0.5;entryDx=0;entryDy=0;endArrow=none;endFill=0;exitX=1;exitY=0.5;exitDx=0;exitDy=0;" edge="1" parent="WIyWlLk6GJQsqaUBKTNV-1" source="Pqf1q-5HvZE4MUK6Lj2k-68" target="Pqf1q-5HvZE4MUK6Lj2k-38">
          <mxGeometry relative="1" as="geometry">
            <mxPoint x="1385" y="890" as="sourcePoint" />
          </mxGeometry>
        </mxCell>
        <mxCell id="Pqf1q-5HvZE4MUK6Lj2k-64" value="" style="endArrow=none;html=1;rounded=0;exitX=1;exitY=0.5;exitDx=0;exitDy=0;entryX=0.5;entryY=0;entryDx=0;entryDy=0;" edge="1" parent="WIyWlLk6GJQsqaUBKTNV-1" source="Pqf1q-5HvZE4MUK6Lj2k-1" target="Pqf1q-5HvZE4MUK6Lj2k-68">
          <mxGeometry relative="1" as="geometry">
            <mxPoint x="1150" y="780" as="sourcePoint" />
            <mxPoint x="1314.9999999999998" y="860" as="targetPoint" />
            <Array as="points">
              <mxPoint x="1140" y="840" />
              <mxPoint x="1310" y="840" />
            </Array>
          </mxGeometry>
        </mxCell>
        <mxCell id="Pqf1q-5HvZE4MUK6Lj2k-68" value="Responsável" style="shape=rhombus;perimeter=rhombusPerimeter;whiteSpace=wrap;html=1;align=center;" vertex="1" parent="WIyWlLk6GJQsqaUBKTNV-1">
          <mxGeometry x="1250" y="870" width="120" height="60" as="geometry" />
        </mxCell>
        <mxCell id="Pqf1q-5HvZE4MUK6Lj2k-73" value="TIPO DE AULA" style="whiteSpace=wrap;html=1;align=center;" vertex="1" parent="WIyWlLk6GJQsqaUBKTNV-1">
          <mxGeometry x="1450" y="900" width="100" height="40" as="geometry" />
        </mxCell>
        <mxCell id="Pqf1q-5HvZE4MUK6Lj2k-79" value="" style="edgeStyle=orthogonalEdgeStyle;rounded=0;orthogonalLoop=1;jettySize=auto;html=1;endArrow=none;endFill=0;" edge="1" parent="WIyWlLk6GJQsqaUBKTNV-1" source="Pqf1q-5HvZE4MUK6Lj2k-76" target="Pqf1q-5HvZE4MUK6Lj2k-38">
          <mxGeometry relative="1" as="geometry" />
        </mxCell>
        <mxCell id="Pqf1q-5HvZE4MUK6Lj2k-76" value="" style="triangle;whiteSpace=wrap;html=1;direction=north;" vertex="1" parent="WIyWlLk6GJQsqaUBKTNV-1">
          <mxGeometry x="1460" y="980" width="80" height="30" as="geometry" />
        </mxCell>
        <mxCell id="Pqf1q-5HvZE4MUK6Lj2k-77" value="" style="edgeStyle=orthogonalEdgeStyle;rounded=0;orthogonalLoop=1;jettySize=auto;html=1;endArrow=none;endFill=0;exitX=0.5;exitY=1;exitDx=0;exitDy=0;entryX=1;entryY=0.5;entryDx=0;entryDy=0;" edge="1" parent="WIyWlLk6GJQsqaUBKTNV-1" source="Pqf1q-5HvZE4MUK6Lj2k-73" target="Pqf1q-5HvZE4MUK6Lj2k-76">
          <mxGeometry relative="1" as="geometry">
            <mxPoint x="1510" y="870" as="sourcePoint" />
            <mxPoint x="1510" y="910" as="targetPoint" />
          </mxGeometry>
        </mxCell>
        <mxCell id="Pqf1q-5HvZE4MUK6Lj2k-78" value="" style="edgeStyle=orthogonalEdgeStyle;rounded=0;orthogonalLoop=1;jettySize=auto;html=1;endArrow=none;endFill=0;exitX=0.5;exitY=1;exitDx=0;exitDy=0;entryX=1;entryY=0.5;entryDx=0;entryDy=0;" edge="1" parent="WIyWlLk6GJQsqaUBKTNV-1" source="Pqf1q-5HvZE4MUK6Lj2k-73" target="Pqf1q-5HvZE4MUK6Lj2k-76">
          <mxGeometry relative="1" as="geometry">
            <mxPoint x="1500" y="940" as="sourcePoint" />
            <mxPoint x="1500" y="980" as="targetPoint" />
            <Array as="points">
              <mxPoint x="1500" y="950" />
              <mxPoint x="1500" y="950" />
            </Array>
          </mxGeometry>
        </mxCell>
        <mxCell id="Pqf1q-5HvZE4MUK6Lj2k-80" value="Participa" style="shape=rhombus;perimeter=rhombusPerimeter;whiteSpace=wrap;html=1;align=center;" vertex="1" parent="WIyWlLk6GJQsqaUBKTNV-1">
          <mxGeometry x="1590" y="800" width="120" height="60" as="geometry" />
        </mxCell>
        <mxCell id="Pqf1q-5HvZE4MUK6Lj2k-81" value="" style="endArrow=none;html=1;rounded=0;exitX=0.993;exitY=0.6;exitDx=0;exitDy=0;exitPerimeter=0;entryX=0.5;entryY=0;entryDx=0;entryDy=0;" edge="1" parent="WIyWlLk6GJQsqaUBKTNV-1" source="Pqf1q-5HvZE4MUK6Lj2k-0" target="Pqf1q-5HvZE4MUK6Lj2k-80">
          <mxGeometry relative="1" as="geometry">
            <mxPoint x="1280" y="690" as="sourcePoint" />
            <mxPoint x="1480" y="720" as="targetPoint" />
            <Array as="points">
              <mxPoint x="1370" y="664" />
              <mxPoint x="1370" y="710" />
              <mxPoint x="1470" y="710" />
              <mxPoint x="1650" y="710" />
            </Array>
          </mxGeometry>
        </mxCell>
        <mxCell id="Pqf1q-5HvZE4MUK6Lj2k-82" value="Treino" style="shape=rhombus;perimeter=rhombusPerimeter;whiteSpace=wrap;html=1;align=center;" vertex="1" parent="WIyWlLk6GJQsqaUBKTNV-1">
          <mxGeometry x="870" y="630" width="120" height="60" as="geometry" />
        </mxCell>
        <mxCell id="Pqf1q-5HvZE4MUK6Lj2k-83" value="" style="endArrow=none;html=1;rounded=0;entryX=0.5;entryY=1;entryDx=0;entryDy=0;exitX=1;exitY=0.5;exitDx=0;exitDy=0;" edge="1" parent="WIyWlLk6GJQsqaUBKTNV-1" source="Pqf1q-5HvZE4MUK6Lj2k-38" target="Pqf1q-5HvZE4MUK6Lj2k-80">
          <mxGeometry relative="1" as="geometry">
            <mxPoint x="1360" y="960" as="sourcePoint" />
            <mxPoint x="1520" y="960" as="targetPoint" />
            <Array as="points">
              <mxPoint x="1650" y="1060" />
            </Array>
          </mxGeometry>
        </mxCell>
      </root>
    </mxGraphModel>
  </diagram>
</mxfile>
